<svg width="16" height="16" viewBox="0 0 16 16" fill="none" xmlns="http://www.w3.org/2000/svg">
<path d="M8 0C5.82667 0 5.55533 0.01 4.702 0.048C3.85 0.088 3.27 0.222 2.76 0.42C2.234 0.624 1.78733 0.898 1.34267 1.34267C0.898 1.78733 0.623333 2.23333 0.42 2.76C0.222 3.27 0.0873333 3.85 0.048 4.702C0.008 5.55533 0 5.82667 0 8C0 10.1733 0.01 10.4447 0.048 11.298C0.088 12.1493 0.222 12.73 0.42 13.24C0.624 13.7653 0.898 14.2127 1.34267 14.6573C1.78733 15.1013 2.23333 15.3767 2.76 15.58C3.27067 15.7773 3.85067 15.9127 4.702 15.952C5.55533 15.992 5.82667 16 8 16C10.1733 16 10.4447 15.99 11.298 15.952C12.1493 15.912 12.73 15.7773 13.24 15.58C13.7653 15.376 14.2127 15.1013 14.6573 14.6573C15.1013 14.2127 15.3767 13.7673 15.58 13.24C15.7773 12.73 15.9127 12.1493 15.952 11.298C15.992 10.4447 16 10.1733 16 8C16 5.82667 15.99 5.55533 15.952 4.702C15.912 3.85067 15.7773 3.26933 15.58 2.76C15.376 2.234 15.1013 1.78733 14.6573 1.34267C14.2127 0.898 13.7673 0.623333 13.24 0.42C12.73 0.222 12.1493 0.0873333 11.298 0.048C10.4447 0.008 10.1733 0 8 0ZM8 1.44C10.1353 1.44 10.39 1.45067 11.2333 1.48733C12.0133 1.524 12.4367 1.65333 12.718 1.764C13.0927 1.90867 13.358 2.082 13.6393 2.36133C13.9187 2.64133 14.092 2.90733 14.2367 3.282C14.346 3.56333 14.4767 3.98667 14.512 4.76667C14.55 5.61067 14.5587 5.864 14.5587 8C14.5587 10.136 14.5487 10.39 14.5093 11.2333C14.4687 12.0133 14.3387 12.4367 14.2287 12.718C14.0793 13.0927 13.9093 13.358 13.6293 13.6393C13.35 13.9187 13.08 14.092 12.7093 14.2367C12.4293 14.346 11.9993 14.4767 11.2193 14.512C10.37 14.55 10.12 14.5587 7.98 14.5587C5.83933 14.5587 5.58933 14.5487 4.74067 14.5093C3.96 14.4687 3.53 14.3387 3.25 14.2287C2.87067 14.0793 2.61 13.9093 2.33067 13.6293C2.05 13.35 1.87067 13.08 1.73067 12.7093C1.62067 12.4293 1.49133 11.9993 1.45067 11.2193C1.42067 10.3793 1.41 10.12 1.41 7.99C1.41 5.85933 1.42067 5.59933 1.45067 4.74933C1.49133 3.96933 1.62067 3.54 1.73067 3.26C1.87067 2.88 2.05 2.62 2.33067 2.33933C2.61 2.06 2.87067 1.88 3.25 1.74067C3.53 1.63 3.95067 1.5 4.73067 1.46C5.58067 1.43 5.83067 1.42 7.97 1.42L8 1.44ZM8 3.892C5.73 3.892 3.892 5.732 3.892 8C3.892 10.27 5.732 12.108 8 12.108C10.27 12.108 12.108 10.268 12.108 8C12.108 5.73 10.268 3.892 8 3.892ZM8 10.6667C6.52667 10.6667 5.33333 9.47333 5.33333 8C5.33333 6.52667 6.52667 5.33333 8 5.33333C9.47333 5.33333 10.6667 6.52667 10.6667 8C10.6667 9.47333 9.47333 10.6667 8 10.6667ZM13.2307 3.73C13.2307 4.26 12.8 4.69 12.2707 4.69C11.7407 4.69 11.3107 4.25933 11.3107 3.73C11.3107 3.20067 11.7413 2.77067 12.2707 2.77067C12.7993 2.77 13.2307 3.20067 13.2307 3.73Z" fill="white"/>
</svg>
