<svg width="16" height="16" viewBox="0 0 16 16" fill="none" xmlns="http://www.w3.org/2000/svg">
<g clip-path="url(#clip0)">
<path d="M15.9693 3.04601C15.3793 3.30534 14.7493 3.48201 14.086 3.56268C14.762 3.15534 15.282 2.51334 15.528 1.74734C14.894 2.11734 14.1913 2.38668 13.4433 2.53668C12.846 1.89734 11.9947 1.49734 11.0493 1.49734C9.238 1.49734 7.76933 2.96601 7.76933 4.77534C7.76933 5.03534 7.79933 5.28534 7.854 5.52468C5.12733 5.39601 2.71067 4.08668 1.09333 2.10734C0.808667 2.58868 0.649333 3.14801 0.649333 3.75734C0.649333 4.89734 1.22933 5.89934 2.108 6.48801C1.57 6.47068 1.064 6.32268 0.622667 6.07734V6.11801C0.622667 7.70801 1.75133 9.03401 3.25333 9.33601C2.978 9.41001 2.68733 9.45001 2.38933 9.45001C2.18 9.45001 1.97933 9.43001 1.77867 9.39268C2.19933 10.6947 3.40867 11.644 4.848 11.6707C3.728 12.55 2.30867 13.074 0.78 13.074C0.52 13.074 0.260667 13.0587 0 13.0293C1.45933 13.9587 3.17867 14.502 5.038 14.502C11.074 14.502 14.3707 9.50468 14.3707 5.17801C14.3707 5.03868 14.3707 4.89801 14.3607 4.75801C15.0013 4.29868 15.5607 3.71801 16.0007 3.05935L15.9693 3.04601Z" fill="white"/>
</g>
<defs>
<clipPath id="clip0">
<rect width="16" height="16" fill="white"/>
</clipPath>
</defs>
</svg>
